<svg width="164" height="41" viewBox="0 0 164 41" fill="none" xmlns="http://www.w3.org/2000/svg">
<path fill-rule="evenodd" clip-rule="evenodd" d="M8.55273 4.09787C7.12207 5.09823 5.82837 6.28098 4.70532 7.6124C9.29462 7.18633 15.1252 7.88204 21.8944 11.2667C29.123 14.8809 34.9438 15.0031 38.9948 14.2217C38.6272 13.1088 38.1644 12.0392 37.6163 11.0224C32.979 11.5115 27.034 10.8641 20.1056 7.39998C15.706 5.20018 11.8278 4.29401 8.55273 4.09787ZM34.9074 7.16665C31.2453 3.075 25.9234 0.5 20 0.5C18.2605 0.5 16.5727 0.722107 14.9637 1.13948C17.1429 1.73409 19.4579 2.60399 21.8944 3.82227C26.967 6.35853 31.3464 7.17516 34.9074 7.16665ZM39.8609 18.1281C34.9669 19.0945 28.2088 18.896 20.1056 14.8444C12.53 11.0566 6.50043 11.1043 2.4339 12.008C2.224 12.0546 2.01904 12.1036 1.81903 12.1546C1.28662 13.3125 0.861634 14.5301 0.556702 15.7945C0.882386 15.7075 1.21893 15.6248 1.56616 15.5476C6.49957 14.4513 13.4701 14.4989 21.8944 18.7111C29.4701 22.4989 35.4996 22.4512 39.5662 21.5475C39.7055 21.5166 39.8428 21.4846 39.9778 21.4516C39.9926 21.1363 40 20.819 40 20.5C40 19.6975 39.9528 18.906 39.8609 18.1281ZM39.3248 25.6723C34.4783 26.5196 27.917 26.1944 20.1056 22.2888C12.53 18.501 6.50043 18.5487 2.4339 19.4524C1.53125 19.6529 0.719239 19.8972 0.00293 20.1551C0.000977 20.2698 0 20.3848 0 20.5C0 31.5457 8.95429 40.5 20 40.5C29.2571 40.5 37.0453 34.2109 39.3248 25.6723Z" fill="url(#paint0_linear_1156_734)"/>
<path d="M61.6602 28.8789C61.6602 29.1133 61.6094 29.2773 61.5078 29.3711C61.4141 29.457 61.25 29.5 61.0156 29.5H58.5195C58.2852 29.5 58.1172 29.457 58.0156 29.3711C57.9219 29.2773 57.875 29.1133 57.875 28.8789V14.5703C57.875 14.3438 57.9141 14.1719 57.9922 14.0547C58.3438 13.5391 58.8359 12.9961 59.4688 12.4258C59.5859 12.332 59.6875 12.2852 59.7734 12.2852C59.8672 12.2852 59.9648 12.332 60.0664 12.4258C60.4102 12.7227 60.6992 13.0078 60.9336 13.2812C61.168 13.5469 61.3711 13.8047 61.543 14.0547C61.6211 14.1797 61.6602 14.3516 61.6602 14.5703V19.4336H61.9297C62.9062 19.4336 63.6992 19.3008 64.3086 19.0352C64.918 18.7617 65.3867 18.3984 65.7148 17.9453C66.043 17.4844 66.2656 16.9727 66.3828 16.4102C66.5078 15.8477 66.5703 15.2734 66.5703 14.6875V14.5703C66.5703 14.3438 66.6094 14.1719 66.6875 14.0547C67.0391 13.5391 67.5312 12.9961 68.1641 12.4258C68.2812 12.332 68.3828 12.2852 68.4688 12.2852C68.5625 12.2852 68.6602 12.332 68.7617 12.4258C69.1055 12.7227 69.3945 13.0078 69.6289 13.2812C69.8633 13.5469 70.0664 13.8047 70.2383 14.0547C70.3164 14.1797 70.3555 14.3516 70.3555 14.5703V14.6875C70.3555 15.3203 70.293 15.9766 70.168 16.6562C70.043 17.3281 69.8203 17.9648 69.5 18.5664C69.1875 19.168 68.7422 19.6836 68.1641 20.1133C67.5938 20.5352 66.8555 20.8125 65.9492 20.9453V21.0273C66.7617 21.2852 67.4844 21.7148 68.1172 22.3164C68.7578 22.9102 69.3086 23.5898 69.7695 24.3555C70.2383 25.1211 70.6211 25.8906 70.918 26.6641C71.2148 27.4375 71.4258 28.1289 71.5508 28.7383C71.6133 29.0273 71.6133 29.2266 71.5508 29.3359C71.4883 29.4453 71.3398 29.5 71.1055 29.5H68.2344C67.8359 29.5 67.6016 29.3164 67.5312 28.9492C67.4141 28.3555 67.1836 27.6875 66.8398 26.9453C66.5039 26.1953 66.082 25.4727 65.5742 24.7773C65.0664 24.082 64.5 23.5078 63.875 23.0547C63.2578 22.6016 62.6094 22.375 61.9297 22.375H61.6602V28.8789ZM79.2383 29.793C77.918 29.793 76.7695 29.582 75.793 29.1602C74.8164 28.7305 74.0586 28.0664 73.5195 27.168C72.9805 26.2695 72.7109 25.1094 72.7109 23.6875C72.7109 21.5547 73.2578 19.9414 74.3516 18.8477C75.4453 17.7539 76.8984 17.207 78.7109 17.207C79.8906 17.207 80.8867 17.418 81.6992 17.8398C82.5195 18.2617 83.1406 18.8438 83.5625 19.5859C83.9922 20.3281 84.207 21.1758 84.207 22.1289C84.207 23.0586 83.9688 23.707 83.4922 24.0742C83.0156 24.4414 82.3203 24.625 81.4062 24.625H76.3789C76.4414 25.4297 76.7344 26.043 77.2578 26.4648C77.7891 26.8867 78.5078 27.0977 79.4141 27.0977C80.1328 27.0977 80.707 26.9922 81.1367 26.7812C81.5742 26.5625 81.8789 26.3906 82.0508 26.2656C82.1992 26.1562 82.3672 26.1055 82.5547 26.1133C82.7031 26.1133 82.9141 26.1445 83.1875 26.207C83.4688 26.2617 83.7461 26.3672 84.0195 26.5234C84.2148 26.625 84.3125 26.7656 84.3125 26.9453C84.3125 27.0469 84.293 27.1914 84.2539 27.3789C84.2305 27.4883 84.1914 27.6484 84.1367 27.8594C84.082 28.0625 84.0117 28.2539 83.9258 28.4336C83.8789 28.5195 83.8047 28.6016 83.7031 28.6797C83.5469 28.7891 83.293 28.9336 82.9414 29.1133C82.5977 29.293 82.125 29.4492 81.5234 29.582C80.9219 29.7227 80.1602 29.793 79.2383 29.793ZM76.3555 22.2227H80.1758C80.5742 22.2227 80.7734 22.0391 80.7734 21.6719C80.7734 21.1172 80.5977 20.6523 80.2461 20.2773C79.9023 19.8945 79.3828 19.7031 78.6875 19.7031C77.9297 19.7031 77.3711 19.9453 77.0117 20.4297C76.6602 20.9141 76.4414 21.5117 76.3555 22.2227ZM90.4883 19.7266H90.5352C91.1211 18.1016 92.1758 17.2891 93.6992 17.2891C93.8945 17.2891 94.0547 17.3008 94.1797 17.3242C94.3047 17.3398 94.3906 17.3555 94.4375 17.3711C94.5547 17.4102 94.6133 17.5 94.6133 17.6406V20.4648C94.6133 20.707 94.4727 20.7734 94.1914 20.6641C94.0977 20.625 93.9609 20.5859 93.7812 20.5469C93.6094 20.5 93.3672 20.4766 93.0547 20.4766C92.25 20.4766 91.6211 20.7734 91.168 21.3672C90.7148 21.9531 90.4883 22.7539 90.4883 23.7695V28.8789C90.4883 29.1133 90.4375 29.2773 90.3359 29.3711C90.2422 29.457 90.0781 29.5 89.8438 29.5H87.4297C87.1953 29.5 87.0273 29.457 86.9258 29.3711C86.832 29.2773 86.7852 29.1133 86.7852 28.8789V19.0586C86.7852 18.8711 86.8242 18.7266 86.9023 18.625C87.0664 18.4062 87.2617 18.1836 87.4883 17.957C87.7227 17.7305 88.0078 17.4883 88.3438 17.2305C88.4062 17.1836 88.4688 17.1523 88.5312 17.1367C88.5938 17.1211 88.6484 17.1133 88.6953 17.1133C88.8047 17.1133 88.9141 17.1523 89.0234 17.2305C89.6719 17.7383 90.125 18.1719 90.3828 18.5312C90.4531 18.625 90.4883 18.7344 90.4883 18.8594V19.7266ZM99.3594 29.793C98.2109 29.793 97.2969 29.4727 96.6172 28.832C95.9453 28.1836 95.6094 27.293 95.6094 26.1602C95.6094 25.5742 95.7148 25.0312 95.9258 24.5312C96.1445 24.0234 96.5195 23.5781 97.0508 23.1953C97.5898 22.8047 98.3398 22.4922 99.3008 22.2578C100.27 22.0234 101.504 21.8867 103.004 21.8477C103.004 21.1367 102.824 20.625 102.465 20.3125C102.113 20 101.582 19.8438 100.871 19.8438C100.23 19.8438 99.707 19.9531 99.3008 20.1719C98.8945 20.3906 98.6406 20.5391 98.5391 20.6172C98.4297 20.7109 98.2969 20.7461 98.1406 20.7227C97.9297 20.6914 97.7031 20.6367 97.4609 20.5586C97.2266 20.4805 96.9727 20.3906 96.6992 20.2891C96.6602 20.2734 96.6172 20.25 96.5703 20.2188C96.5234 20.1797 96.4961 20.125 96.4883 20.0547C96.4883 20.0156 96.4922 19.9688 96.5 19.9141C96.5078 19.8516 96.5273 19.7422 96.5586 19.5859C96.5898 19.4297 96.6367 19.2383 96.6992 19.0117C96.7617 18.7773 96.8203 18.5977 96.875 18.4727C96.9453 18.3398 97.0625 18.2148 97.2266 18.0977C97.3594 17.9883 97.7617 17.8125 98.4336 17.5703C99.1055 17.3281 100.078 17.207 101.352 17.207C104.859 17.207 106.613 18.9141 106.613 22.3281V28.9609C106.613 29.1094 106.57 29.2383 106.484 29.3477C106.406 29.4492 106.27 29.5 106.074 29.5H104.316C104.191 29.5 104.078 29.4844 103.977 29.4531C103.883 29.4141 103.793 29.3438 103.707 29.2422L102.98 28.3047H102.898C102.539 28.8281 102.055 29.207 101.445 29.4414C100.844 29.6758 100.148 29.793 99.3594 29.793ZM100.648 27.0742C101.367 27.0742 101.91 26.8906 102.277 26.5234C102.645 26.1562 102.879 25.7773 102.98 25.3867V24.0859C101.895 24.0859 101.078 24.1719 100.531 24.3438C99.9922 24.5078 99.6328 24.7266 99.4531 25C99.2734 25.2656 99.1836 25.5547 99.1836 25.8672C99.1836 26.3203 99.3242 26.6367 99.6055 26.8164C99.8867 26.9883 100.234 27.0742 100.648 27.0742ZM119.586 22.7734C119.695 22.3516 119.812 21.9375 119.938 21.5312C120.07 21.1172 120.23 20.6562 120.418 20.1484C120.582 19.6953 120.781 19.1758 121.016 18.5898C121.25 17.9961 121.496 17.3945 121.754 16.7852C122.02 16.1758 122.277 15.6094 122.527 15.0859C122.777 14.5625 123.004 14.1445 123.207 13.832C123.457 13.4492 123.727 13.1641 124.016 12.9766C124.312 12.7891 124.746 12.6953 125.316 12.6953H126.852C127.258 12.6953 127.598 12.7578 127.871 12.8828C128.152 13 128.352 13.2852 128.469 13.7383C128.555 14.0742 128.637 14.5664 128.715 15.2148C128.793 15.8633 128.859 16.7617 128.914 17.9102C128.969 19.0586 129.012 20.5352 129.043 22.3398C129.074 24.1367 129.09 26.3594 129.09 29.0078C129.09 29.1484 129.043 29.2656 128.949 29.3594C128.855 29.4531 128.742 29.5 128.609 29.5H125.938C125.805 29.5 125.691 29.4531 125.598 29.3594C125.504 29.2656 125.457 29.1445 125.457 28.9961C125.457 26.9336 125.457 25.1836 125.457 23.7461C125.457 22.3086 125.453 21.1172 125.445 20.1719C125.438 19.2266 125.426 18.4766 125.41 17.9219C125.402 17.3594 125.387 16.9258 125.363 16.6211H125.293C124.879 17.5742 124.438 18.6367 123.969 19.8086C123.5 20.9727 123.043 22.1758 122.598 23.418C122.152 24.6523 121.754 25.8594 121.402 27.0391C121.301 27.3906 121.172 27.6367 121.016 27.7773C120.867 27.9102 120.523 27.9766 119.984 27.9766H118.637C118.176 27.9766 117.867 27.918 117.711 27.8008C117.562 27.6836 117.434 27.4297 117.324 27.0391C117.066 26.1484 116.781 25.207 116.469 24.2148C116.156 23.2227 115.832 22.25 115.496 21.2969C115.168 20.3359 114.848 19.4531 114.535 18.6484C114.23 17.8359 113.957 17.1602 113.715 16.6211H113.645C113.582 17.543 113.527 18.6641 113.48 19.9844C113.434 21.3047 113.395 22.7383 113.363 24.2852C113.34 25.832 113.324 27.4102 113.316 29.0195C113.316 29.1602 113.27 29.2773 113.176 29.3711C113.082 29.457 112.969 29.5 112.836 29.5H110.434C110.301 29.5 110.188 29.4531 110.094 29.3594C110 29.2656 109.953 29.1445 109.953 28.9961C109.961 24.832 110.043 21.5078 110.199 19.0234C110.363 16.5391 110.539 14.875 110.727 14.0312C110.852 13.4766 111.07 13.1172 111.383 12.9531C111.703 12.7812 112.066 12.6953 112.473 12.6953H114.371C114.801 12.6953 115.113 12.7734 115.309 12.9297C115.512 13.0781 115.758 13.3711 116.047 13.8086C116.219 14.0664 116.422 14.4531 116.656 14.9688C116.898 15.4844 117.148 16.0586 117.406 16.6914C117.664 17.3164 117.906 17.9375 118.133 18.5547C118.367 19.1641 118.559 19.6953 118.707 20.1484C118.863 20.6094 119.008 21.0586 119.141 21.4961C119.273 21.9258 119.391 22.3516 119.492 22.7734H119.586ZM135.195 29.793C134.047 29.793 133.133 29.4727 132.453 28.832C131.781 28.1836 131.445 27.293 131.445 26.1602C131.445 25.5742 131.551 25.0312 131.762 24.5312C131.98 24.0234 132.355 23.5781 132.887 23.1953C133.426 22.8047 134.176 22.4922 135.137 22.2578C136.105 22.0234 137.34 21.8867 138.84 21.8477C138.84 21.1367 138.66 20.625 138.301 20.3125C137.949 20 137.418 19.8438 136.707 19.8438C136.066 19.8438 135.543 19.9531 135.137 20.1719C134.73 20.3906 134.477 20.5391 134.375 20.6172C134.266 20.7109 134.133 20.7461 133.977 20.7227C133.766 20.6914 133.539 20.6367 133.297 20.5586C133.062 20.4805 132.809 20.3906 132.535 20.2891C132.496 20.2734 132.453 20.25 132.406 20.2188C132.359 20.1797 132.332 20.125 132.324 20.0547C132.324 20.0156 132.328 19.9688 132.336 19.9141C132.344 19.8516 132.363 19.7422 132.395 19.5859C132.426 19.4297 132.473 19.2383 132.535 19.0117C132.598 18.7773 132.656 18.5977 132.711 18.4727C132.781 18.3398 132.898 18.2148 133.062 18.0977C133.195 17.9883 133.598 17.8125 134.27 17.5703C134.941 17.3281 135.914 17.207 137.188 17.207C140.695 17.207 142.449 18.9141 142.449 22.3281V28.9609C142.449 29.1094 142.406 29.2383 142.32 29.3477C142.242 29.4492 142.105 29.5 141.91 29.5H140.152C140.027 29.5 139.914 29.4844 139.812 29.4531C139.719 29.4141 139.629 29.3438 139.543 29.2422L138.816 28.3047H138.734C138.375 28.8281 137.891 29.207 137.281 29.4414C136.68 29.6758 135.984 29.793 135.195 29.793ZM136.484 27.0742C137.203 27.0742 137.746 26.8906 138.113 26.5234C138.48 26.1562 138.715 25.7773 138.816 25.3867V24.0859C137.73 24.0859 136.914 24.1719 136.367 24.3438C135.828 24.5078 135.469 24.7266 135.289 25C135.109 25.2656 135.02 25.5547 135.02 25.8672C135.02 26.3203 135.16 26.6367 135.441 26.8164C135.723 26.9883 136.07 27.0742 136.484 27.0742ZM149.199 19.7266H149.246C149.832 18.1016 150.887 17.2891 152.41 17.2891C152.605 17.2891 152.766 17.3008 152.891 17.3242C153.016 17.3398 153.102 17.3555 153.148 17.3711C153.266 17.4102 153.324 17.5 153.324 17.6406V20.4648C153.324 20.707 153.184 20.7734 152.902 20.6641C152.809 20.625 152.672 20.5859 152.492 20.5469C152.32 20.5 152.078 20.4766 151.766 20.4766C150.961 20.4766 150.332 20.7734 149.879 21.3672C149.426 21.9531 149.199 22.7539 149.199 23.7695V28.8789C149.199 29.1133 149.148 29.2773 149.047 29.3711C148.953 29.457 148.789 29.5 148.555 29.5H146.141C145.906 29.5 145.738 29.457 145.637 29.3711C145.543 29.2773 145.496 29.1133 145.496 28.8789V19.0586C145.496 18.8711 145.535 18.7266 145.613 18.625C145.777 18.4062 145.973 18.1836 146.199 17.957C146.434 17.7305 146.719 17.4883 147.055 17.2305C147.117 17.1836 147.18 17.1523 147.242 17.1367C147.305 17.1211 147.359 17.1133 147.406 17.1133C147.516 17.1133 147.625 17.1523 147.734 17.2305C148.383 17.7383 148.836 18.1719 149.094 18.5312C149.164 18.625 149.199 18.7344 149.199 18.8594V19.7266ZM160.531 29.793C157.922 29.793 156.617 28.4375 156.617 25.7266V20.2305H155.293C155.059 20.2305 154.895 20.1836 154.801 20.0898C154.715 19.9883 154.672 19.8203 154.672 19.5859V18.1445C154.672 17.9102 154.715 17.7461 154.801 17.6523C154.895 17.5508 155.059 17.5 155.293 17.5H156.617V15.6133C156.617 15.4258 156.656 15.2812 156.734 15.1797C157.062 14.75 157.543 14.2852 158.176 13.7852C158.285 13.707 158.383 13.668 158.469 13.668C158.562 13.668 158.656 13.707 158.75 13.7852C159.086 14.043 159.367 14.2852 159.594 14.5117C159.828 14.7383 160.027 14.9609 160.191 15.1797C160.27 15.2812 160.309 15.4258 160.309 15.6133V17.5H162.383C162.617 17.5 162.777 17.5508 162.863 17.6523C162.957 17.7461 163.004 17.9102 163.004 18.1445V19.5859C163.004 19.8203 162.957 19.9883 162.863 20.0898C162.777 20.1836 162.617 20.2305 162.383 20.2305H160.309V25.082C160.309 26.332 160.762 26.957 161.668 26.957C161.809 26.957 161.938 26.9453 162.055 26.9219C162.172 26.8906 162.273 26.8594 162.359 26.8281C162.523 26.7656 162.637 26.7422 162.699 26.7578C162.77 26.7734 162.832 26.8594 162.887 27.0156L163.566 28.832C163.637 29.0273 163.59 29.168 163.426 29.2539C163.309 29.3086 163.023 29.4102 162.57 29.5586C162.125 29.7148 161.445 29.793 160.531 29.793Z" fill="#191825"/>
<defs>
<linearGradient id="paint0_linear_1156_734" x1="36" y1="43.7" x2="-3.73321" y2="36.0931" gradientUnits="userSpaceOnUse">
<stop stop-color="#5D50C6"/>
<stop offset="1" stop-color="#F85E9F"/>
</linearGradient>
</defs>
</svg>
